<?xml version="1.0" encoding="UTF-8"?>
<svg version="1.1" xmlns="http://www.w3.org/2000/svg" width="2000" height="2000">
<path d="M0 0 C5.41317291 0.01034951 10.8263041 -0.00297111 16.23947069 -0.01297333 C25.68290067 -0.02728099 35.12623884 -0.02706878 44.56967279 -0.01678469 C58.61337088 -0.00153305 72.65699281 -0.00945222 86.70069054 -0.02161792 C110.34584295 -0.0413792 133.99096044 -0.04223627 157.63611719 -0.03131106 C181.04819081 -0.02049909 204.46024741 -0.0163053 227.87232324 -0.02139284 C229.34805356 -0.02170277 230.82378387 -0.02201139 232.29951419 -0.02231872 C238.23117613 -0.0235608 244.16283807 -0.02483548 250.0945 -0.02615778 C266.67173692 -0.02982422 283.2489739 -0.03210779 299.82621118 -0.03330233 C300.58084214 -0.03335691 301.3354731 -0.0334115 302.11297167 -0.03346773 C326.12702659 -0.0351027 350.14107634 -0.0306084 374.15512964 -0.02190401 C374.93299192 -0.02162302 375.7108542 -0.02134202 376.51228807 -0.02105251 C389.14099541 -0.01647376 401.76970264 -0.01159542 414.39840985 -0.00669182 C464.47251266 0.01273068 514.54657267 0.01182914 564.6206753 -0.00761416 C577.24330505 -0.01249968 589.86593482 -0.0173442 602.4885647 -0.02190401 C603.26598697 -0.02218581 604.04340925 -0.0224676 604.84438977 -0.02275793 C628.83542158 -0.03139408 652.82644984 -0.03503762 676.81748316 -0.03330233 C677.57154665 -0.03324799 678.32561014 -0.03319366 679.10252404 -0.03313767 C695.66193131 -0.03188727 712.22133819 -0.02935177 728.78074509 -0.02566032 C734.70682336 -0.02434399 740.63290165 -0.02309163 746.55897995 -0.02185747 C748.03297695 -0.02154792 749.50697396 -0.02123299 750.98097096 -0.02091269 C774.37953262 -0.01584188 797.77807557 -0.02150199 821.17663477 -0.03231327 C845.41853946 -0.04339173 869.6603999 -0.03918823 893.90229866 -0.01818808 C907.84693727 -0.00650425 921.79147377 -0.00558678 935.73610958 -0.02077278 C945.08085889 -0.02982072 954.42552729 -0.02402051 963.77026472 -0.0067537 C969.0740981 0.00265205 974.37773048 0.00624894 979.68155667 -0.00837763 C1076.91702762 -0.25654984 1176.01783859 23.42069876 1259.55085108 79.32197569 C1261.15594559 80.40221712 1262.77525468 81.46126292 1264.39606592 82.51777647 C1278.74733612 91.89602807 1292.40164086 102.13673564 1305.58649561 113.08271787 C1307.12345082 114.35025184 1308.67842883 115.59586229 1310.23590967 116.83808897 C1322.58897354 126.69503226 1333.76255426 137.85397124 1344.96170923 148.97850034 C1346.10205885 150.11078727 1347.24388276 151.24159169 1348.38730738 152.37077329 C1354.76369542 158.67609759 1360.80179914 165.03526005 1366.36359522 172.08198545 C1368.40258273 174.6141329 1370.55139993 177.00343936 1372.75934717 179.38887022 C1433.96743336 246.83404982 1471.0321501 339.92887212 1484.00934717 429.01387022 C1484.11217005 429.70843321 1484.21499292 430.40299619 1484.32093164 431.11860655 C1485.07190291 436.24116799 1485.71654716 441.37220203 1486.32184717 446.51387022 C1486.41189752 447.27214072 1486.50194788 448.03041122 1486.59472703 448.81165961 C1488.90416165 469.24836289 1488.60939382 489.75235241 1488.58498364 510.28537485 C1488.5807753 515.70256618 1488.58823662 521.11974441 1488.59413615 526.53693245 C1488.60286275 536.01198592 1488.60422292 545.48701777 1488.60063288 554.96207426 C1488.59530824 569.05264077 1488.60143886 583.14318648 1488.60971581 597.23375073 C1488.62451431 623.1373023 1488.62680822 649.04084471 1488.62439543 674.94439971 C1488.62405694 678.60905066 1488.62373485 682.27370161 1488.62342975 685.93835256 C1488.62333818 687.03035062 1488.62333818 687.03035062 1488.62324477 688.14440925 C1488.62197035 704.31121585 1488.62457885 720.47802113 1488.62795581 736.64482734 C1488.62872657 740.34147292 1488.62947131 744.03811852 1488.63022083 747.73476411 C1488.63052252 749.21850144 1488.6308244 750.70223876 1488.63112647 752.18597609 C1488.63127615 752.92146497 1488.63142583 753.65695384 1488.63158004 754.41473025 C1488.63188358 755.9024901 1488.63218826 757.39024994 1488.63249409 758.87800978 C1488.64116177 801.06785594 1488.64581493 843.25770095 1488.64154646 885.44754789 C1488.6414684 886.22803274 1488.64139034 887.0085176 1488.64130992 887.8126535 C1488.6404372 896.51492519 1488.63950794 905.21719688 1488.63855929 913.91946856 C1488.63847378 914.70508199 1488.63838827 915.49069542 1488.63830017 916.30011531 C1488.63758958 922.82599315 1488.63758958 922.82599315 1488.63725794 925.8312989 C1488.63172384 976.06664241 1488.63926174 1026.30196753 1488.65802881 1076.53730772 C1488.66275148 1089.1944198 1488.66743219 1101.85153189 1488.67186567 1114.50864408 C1488.67213899 1115.28811741 1488.67241232 1116.06759073 1488.67269392 1116.87068446 C1488.68107268 1140.91651335 1488.68574558 1164.96234072 1488.68657324 1189.00817106 C1488.6865996 1189.76373674 1488.68662597 1190.51930243 1488.68665314 1191.29776404 C1488.68719406 1207.88873261 1488.68682114 1224.47970105 1488.68561342 1241.07066958 C1488.68518784 1247.00799418 1488.6848227 1252.94531878 1488.68448398 1258.88264338 C1488.68439868 1260.35954468 1488.68430974 1261.83644598 1488.68421716 1263.31334729 C1488.68277202 1286.78713567 1488.68987102 1310.2609115 1488.70122112 1333.73469688 C1488.71290348 1358.05317937 1488.71339871 1382.37163887 1488.7013777 1406.69012157 C1488.69476648 1420.68966947 1488.69633993 1434.68915852 1488.70996621 1448.68870167 C1488.71824844 1458.06040209 1488.71546447 1467.43205871 1488.70399094 1476.80375561 C1488.69777172 1482.12980569 1488.69603617 1487.45574149 1488.70785428 1492.78178469 C1488.76759749 1521.63855552 1487.74943628 1550.03175663 1483.07184717 1578.57637022 C1482.86350244 1579.87324766 1482.65515772 1581.1701251 1482.44049951 1582.50630186 C1469.23305957 1662.81911006 1436.21113845 1740.12086204 1386.32184717 1804.51387022 C1385.90757471 1805.05285947 1385.49330225 1805.59184873 1385.06647608 1806.147171 C1379.96920658 1812.77305518 1374.75256934 1819.28272952 1369.32184717 1825.63887022 C1368.88445215 1826.15175596 1368.44705713 1826.6646417 1367.99640772 1827.19306944 C1359.24850472 1837.33179336 1350.02669388 1846.99565912 1340.5606167 1856.46040342 C1338.817964 1858.2052583 1337.08351554 1859.95800764 1335.34919092 1861.71113584 C1329.39114352 1867.69833819 1323.37146934 1873.34780955 1316.72956201 1878.57978819 C1314.20364721 1880.60881851 1311.82402429 1882.75085457 1309.44684717 1884.95137022 C1237.46930347 1950.27268339 1135.61930605 1989.38217785 975.41958758 2000.90547424 C970.03146869 2000.89865488 964.64337673 2000.9094844 959.25526395 2000.91787008 C949.84795561 2000.93014607 940.4406972 2000.93148908 931.03338358 2000.92531965 C917.0430914 2000.91616953 903.05284482 2000.9243077 889.06255611 2000.93561089 C863.33831675 2000.9557811 837.61410019 2000.95735128 811.88985509 2000.95196027 C808.25487896 2000.9512044 804.61990282 2000.95047679 800.98492667 2000.9497783 C799.90165719 2000.94956966 799.90165719 2000.94956966 798.79650348 2000.94935681 C782.73469245 2000.94639439 766.67288416 2000.94942729 750.61107362 2000.95367459 C748.4075725 2000.95425674 746.20407139 2000.95482559 744.00057027 2000.95539022 C738.09244448 2000.95690541 732.1843187 2000.95843233 726.27619293 2000.95998322 C685.07448673 2000.97072711 643.87278307 2000.97545522 602.67107603 2000.96751306 C601.89576485 2000.96736476 601.12045366 2000.96721645 600.3216482 2000.96706365 C591.6777563 2000.96540492 583.03386442 2000.96365532 574.38997255 2000.96187064 C573.60968205 2000.96170962 572.82939155 2000.96154859 572.02545589 2000.96138269 C565.69764075 2000.9600759 565.69764075 2000.9600759 562.5589 2000.9594215 C512.66940356 2000.94903454 462.77994241 2000.95679308 412.89045069 2000.98042295 C400.31967063 2000.98636732 387.74889056 2000.99225929 375.17811033 2000.99783228 C374.40387089 2000.99817605 373.62963144 2000.99851982 372.83193019 2000.998874 C348.933689 2001.00941702 325.03545076 2001.01499592 301.13720724 2001.01538942 C300.01022542 2001.01540859 300.01022542 2001.01540859 298.86047629 2001.01542815 C282.3599079 2001.01565655 265.85933977 2001.01464941 249.35877152 2001.0125191 C243.45333947 2001.01176447 237.54790742 2001.01108624 231.64247536 2001.01043895 C230.17361099 2001.01027626 228.70474662 2001.01010859 227.23588226 2001.00993593 C203.92759178 2001.0072259 180.61932287 2001.01572108 157.31103702 2001.02979004 C133.15322517 2001.04426481 108.99545732 2001.04366001 84.83764634 2001.02641532 C70.94497315 2001.01690447 57.05240469 2001.01817953 43.15973865 2001.03565001 C33.84434894 2001.04623482 24.529038 2001.04190714 15.21365591 2001.02616997 C9.92978073 2001.01763978 4.64610879 2001.0148573 -0.637755 2001.03043929 C-21.66301638 2001.08802471 -42.47824435 2000.58490537 -63.42552927 1998.66223238 C-64.329615 1998.5797244 -65.23370072 1998.49721642 -66.16518299 1998.4122082 C-82.89620186 1996.84912164 -99.27237233 1994.14920313 -115.67815283 1990.51387022 C-116.79657568 1990.26878721 -117.91499853 1990.0237042 -119.06731299 1989.77119444 C-176.54506451 1977.00500241 -233.92567988 1954.77614153 -282.90715674 1921.70576475 C-284.51225124 1920.62552331 -286.13156034 1919.56647752 -287.75237158 1918.50996397 C-302.72941695 1908.72278152 -316.97782943 1898.00982857 -330.67815283 1886.51387022 C-331.29174658 1885.99937315 -331.90534033 1885.48487608 -332.53752783 1884.95478819 C-334.33925561 1883.43843021 -336.13534947 1881.91576619 -337.92815283 1880.38887022 C-338.68660498 1879.74389585 -338.68660498 1879.74389585 -339.46037939 1879.0858917 C-349.57496146 1870.384987 -359.19482986 1861.18382388 -368.62468603 1851.75263975 C-370.36954091 1850.00998704 -372.12229025 1848.27553859 -373.87541845 1846.54121397 C-379.87867041 1840.56719305 -385.54101775 1834.52766774 -390.79289892 1827.87275694 C-392.65394145 1825.54416423 -394.60272499 1823.33660451 -396.61565283 1821.13887022 C-455.09336235 1755.86945821 -491.96693814 1667.38030181 -511.80958059 1512.32617376 C-511.81123343 1510.51178662 -511.81332116 1508.69739984 -511.8158007 1506.88301364 C-511.82133592 1501.91034652 -511.82070073 1496.93769672 -511.81902311 1491.96502751 C-511.81828924 1486.54976433 -511.82332143 1481.13450593 -511.82759812 1475.71924482 C-511.83516342 1464.98442622 -511.83737044 1454.24961261 -511.83792718 1443.51479163 C-511.83884229 1430.65368035 -511.84551423 1417.79257364 -511.852274 1404.93146434 C-511.86794122 1374.5849855 -511.87402104 1344.23850728 -511.87868103 1313.8920251 C-511.88106668 1298.44284142 -511.88477067 1282.99365817 -511.88871813 1267.54447482 C-511.90138197 1217.95273957 -511.91216505 1168.36100435 -511.91555859 1118.76926751 C-511.91572083 1116.40011415 -511.91588639 1114.03096079 -511.91605297 1111.66180743 C-511.91638676 1106.91067374 -511.91671724 1102.15954005 -511.91704753 1097.40840635 C-511.91743442 1091.8463433 -511.91782403 1086.28428025 -511.91821859 1080.7222172 C-511.91833101 1079.13032782 -511.91844243 1077.53843844 -511.91855285 1075.94654906 C-511.92210023 1024.84980593 -511.93717059 973.75307687 -511.96049059 922.65633911 C-511.9772455 885.92959408 -511.99271287 849.20285171 -511.99722555 812.47610281 C-511.99731904 811.71986593 -511.99741252 810.96362905 -511.99750884 810.18447591 C-511.99952847 793.57827975 -512.00068404 776.97208363 -512.00103743 760.36588736 C-512.00117359 754.42282045 -512.00138258 748.47975354 -512.00163068 742.53668663 C-512.00169224 741.05831277 -512.00175056 739.5799389 -512.00180563 738.10156504 C-512.0027233 714.59959689 -512.01266561 691.09764349 -512.02726312 667.59568018 C-512.0423294 643.24136456 -512.04644288 618.8870701 -512.03817016 594.53275084 C-512.03372697 580.51103471 -512.03752187 566.48937897 -512.05340866 552.46767082 C-512.06320709 543.08084194 -512.06193432 533.69405505 -512.05197244 524.30722649 C-512.04661525 518.97235709 -512.04575622 513.63760307 -512.05848116 508.30274355 C-512.12303328 479.44795176 -511.12243497 451.0547001 -506.42815283 422.51387022 C-506.21908301 421.21812071 -506.01001318 419.92237119 -505.79460791 418.58735655 C-492.55523127 338.22530433 -459.61700958 260.97085345 -409.67815283 196.51387022 C-409.26388037 195.97488096 -408.84960791 195.4358917 -408.42278174 194.88056944 C-403.34375267 188.27839578 -398.14772371 181.78835367 -392.74065283 175.45137022 C-392.31163672 174.94686338 -391.8826206 174.44235655 -391.440604 173.92256162 C-382.34641365 163.37205301 -372.68795732 153.33697551 -362.84148291 143.49189756 C-361.10770339 141.75591066 -359.38213745 140.01201911 -357.65666845 138.26777647 C-351.69959325 132.28144286 -345.67488684 126.63893183 -339.03923681 121.40132139 C-336.71007113 119.53938572 -334.50163973 117.58996501 -332.30315283 115.57637022 C-266.19069847 56.34334233 -176.32090068 19.40323848 0 0 Z " fill="#292C51" transform="translate(511.67815282940865,-0.5138702169060707)"/>
<path d="M0 0 C32.26367785 -0.06635676 64.52728851 -0.12166365 96.79101424 -0.15319599 C100.61539633 -0.15694731 104.43977828 -0.16083036 108.26416016 -0.16479492 C109.02540346 -0.16558185 109.78664676 -0.16636878 110.57095805 -0.16717956 C122.83523198 -0.1801705 135.09946296 -0.2037888 147.36371157 -0.23145839 C159.98382258 -0.25968961 172.60391138 -0.27621331 185.22405267 -0.28226548 C192.98737717 -0.28634557 200.7505802 -0.29914576 208.51386723 -0.3237494 C214.50520633 -0.34174946 220.49644486 -0.34332172 226.48781395 -0.33932304 C228.91747209 -0.34013676 231.34713558 -0.34594506 233.77676582 -0.35761642 C271.67457703 -0.53047092 316.42235199 1.22011579 345.234375 29.14453125 C358.67519693 43.02199005 363.53387174 60.99699306 363.35131836 79.95996094 C362.86788613 96.7032234 357.33126777 111.81466054 347 125 C346.39929688 125.80695313 345.79859375 126.61390625 345.1796875 127.4453125 C336.62111279 137.47633017 324.8746116 143.75655094 313 149 C312.37480469 149.28214355 311.74960937 149.56428711 311.10546875 149.85498047 C302.51900702 153.68951351 293.95372415 156.18646732 284.77734375 158.140625 C281.41841924 158.90480638 278.24248993 159.84666505 275 161 C275.44730469 161.44730469 275.89460938 161.89460937 276.35546875 162.35546875 C278.23697917 164.23697917 280.11848958 166.11848958 282 168 C283.20849609 169.19302734 283.20849609 169.19302734 284.44140625 170.41015625 C286.95983508 172.95934451 289.35723339 175.58290346 291.75 178.25 C297.25532415 184.33196108 303.04729008 190.11127506 308.89746094 195.86035156 C312.86301438 199.77765775 316.60895486 203.79452401 320.24511719 208.01806641 C323.26557896 211.42932248 326.50835301 214.61307888 329.75 217.8125 C330.40871094 218.46669922 331.06742188 219.12089844 331.74609375 219.79492188 C332.9607373 221.00094219 334.17641678 222.20592091 335.39355469 223.40942383 C337 225 337 225 338.28077698 226.5723877 C340.61291675 228.5089552 342.10495555 228.39594377 345.11401367 228.43237305 C346.16939331 228.45231323 347.22477295 228.47225342 348.31213379 228.49279785 C349.41955933 228.49904175 350.52698486 228.50528564 351.66796875 228.51171875 C353.19677673 228.53667419 353.19677673 228.53667419 354.75646973 228.56213379 C358.56660286 228.62000242 362.37709091 228.65220257 366.1875 228.6875 C374.705625 228.790625 383.22375 228.89375 392 229 C392 248.47 392 267.94 392 288 C361.87278607 288.44180035 361.87278607 288.44180035 346.96592999 288.55279255 C338.91088528 288.6136963 330.85709669 288.69094736 322.80297852 288.82983398 C316.42491551 288.93976562 310.04780108 289.01050676 303.66881698 289.03497344 C300.29317376 289.04926915 296.92024303 289.08264424 293.5454731 289.16303062 C271.30025217 289.63475124 271.30025217 289.63475124 266.4180603 285.61746216 C264.11037457 282.8265033 262.56939428 280.24661914 261 277 C259.9071411 275.64171471 258.778953 274.30975435 257.59375 273.03125 C257.08255615 272.44657959 256.5713623 271.86190918 256.04467773 271.25952148 C255.28006226 270.38855835 255.28006226 270.38855835 254.5 269.5 C250.00319099 264.34578947 245.6137095 259.12481926 241.30859375 253.80859375 C238.08499363 249.88681966 234.76655277 246.04936839 231.45214844 242.2043457 C227.5607131 237.67989857 223.77347377 233.07828188 220.01171875 228.4453125 C217.67165549 225.60088609 215.24651227 222.84283644 212.8046875 220.0859375 C210.68988229 217.64155225 208.6587046 215.13722332 206.625 212.625 C203.67264347 208.99210027 200.65271084 205.46029238 197.5 202 C193.66371513 197.78604978 190.04938275 193.43260734 186.46484375 189.00390625 C183.12220465 184.9302304 179.68955767 180.93712194 176.2487793 176.94628906 C175.76965088 176.39038086 175.29052246 175.83447266 174.796875 175.26171875 C174.37760742 174.77662842 173.95833984 174.29153809 173.52636719 173.79174805 C171.32933226 171.21272704 169.16892281 168.60270737 167 166 C155.615 165.505 155.615 165.505 144 165 C144 186.45 144 207.9 144 230 C161.16 230 178.32 230 196 230 C196 248.81 196 267.62 196 287 C131.98 287 67.96 287 2 287 C2 268.19 2 249.38 2 230 C17.18 230 32.36 230 48 230 C48 171.59 48 113.18 48 53 C32.16 53 16.32 53 0 53 C0 35.51 0 18.02 0 0 Z " fill="#02D5D5" transform="translate(538,856)"/>
<path d="M0 0 C1.50095215 0.26538574 1.50095215 0.26538574 3.03222656 0.53613281 C21.41855091 3.88910346 38.60895737 9.15516002 56 15.9375 C57.53998657 16.52954224 57.53998657 16.52954224 59.11108398 17.13354492 C66.33075868 20.02316928 72.53903357 23.66966477 79 28 C79 20.41 79 12.82 79 5 C100.12 5 121.24 5 143 5 C143 42.29 143 79.58 143 118 C121.55 118 100.1 118 78 118 C77.67 110.08 77.34 102.16 77 94 C65.58145696 75.73033114 46.03634425 69.07496832 25.75830078 64.22460938 C11.75883911 61.12949724 -1.799054 58.85862173 -16.1484375 58.796875 C-17.72644638 58.78832489 -17.72644638 58.78832489 -19.33633423 58.77960205 C-21.55673228 58.77019872 -23.777144 58.76363675 -25.99755859 58.75976562 C-29.33066421 58.75012819 -32.66313416 58.71908736 -35.99609375 58.6875 C-63.42593124 58.27101294 -63.42593124 58.27101294 -88 69 C-92.4245188 73.6703254 -94.05856956 78.20224823 -94.375 84.5625 C-94.28082159 87.68085177 -94.00771769 88.98552934 -92.5 91.8125 C-86.71931496 96.87059941 -80.051519 98.76713351 -72.625 100.125 C-71.75649414 100.29112793 -70.88798828 100.45725586 -69.99316406 100.62841797 C-62.95670167 101.92810599 -55.9166737 102.81834583 -48.796875 103.5078125 C-44.24992714 103.95266065 -39.72168283 104.52491822 -35.18952942 105.09954834 C-29.57080482 105.80940097 -23.94883437 106.48951635 -18.32546997 107.16159058 C-13.45097868 107.74456741 -8.57717812 108.33322468 -3.70336914 108.921875 C-1.20556727 109.22242088 1.29247878 109.5209447 3.79077148 109.81738281 C87.5648409 119.76986363 87.5648409 119.76986363 117 145 C117.6496875 145.495 118.299375 145.99 118.96875 146.5 C134.76727489 159.03851181 143.42548992 179.46365242 146 199 C147.87307295 222.38513277 145.77610661 244.09776466 130.12890625 262.625 C104.74311138 290.9452996 68.17799339 300.98505382 31.6875 306.3125 C30.61749756 306.47169922 29.54749512 306.63089844 28.44506836 306.79492188 C-21.20025712 313.57611112 -79.47062556 312.8011009 -126.0625 292.8125 C-126.92810547 292.44447266 -127.79371094 292.07644531 -128.68554688 291.69726562 C-130.79168848 290.80128273 -132.89603702 289.90108689 -135 289 C-135 292.96 -135 296.92 -135 301 C-156.12 301 -177.24 301 -199 301 C-199 262.06 -199 223.12 -199 183 C-177.55 183 -156.1 183 -134 183 C-133.67 191.91 -133.34 200.82 -133 210 C-122.80826902 226.9862183 -109.65557454 234.08772162 -91 239 C-90.17226074 239.21930176 -89.34452148 239.43860352 -88.49169922 239.66455078 C-77.08242016 242.63857377 -65.76581557 245.04601495 -54 246 C-52.94603027 246.08685059 -51.89206055 246.17370117 -50.80615234 246.26318359 C-41.73380669 246.94309808 -32.72297258 247.15607172 -23.62890625 247.13037109 C-21.369724 247.12498743 -19.11073899 247.13037001 -16.8515625 247.13671875 C-5.34629393 247.14353927 6.20529943 247.0785763 17.4375 244.3125 C18.14487305 244.14097412 18.85224609 243.96944824 19.58105469 243.79272461 C30.08692244 241.10274257 40.56426055 237.81202844 46.75 228.3125 C49.47184966 223.27707812 49.42365361 219.58824951 48 214 C44.05287328 206.8132504 37.46112397 203.66644724 30 201 C26.04773298 200.12978956 22.11831023 199.71970033 18.08984375 199.37109375 C16.9708519 199.25809433 15.85186005 199.14509491 14.69895935 199.02867126 C12.33205038 198.79103738 9.96432012 198.56145949 7.59588623 198.33953857 C2.88531012 197.89474633 -1.81934991 197.39900497 -6.5249939 196.90518188 C-10.09235883 196.53162049 -13.66029206 196.16409223 -17.22851562 195.79882812 C-18.41743408 195.67709229 -19.60635254 195.55535645 -20.83129883 195.42993164 C-23.23348096 195.1851761 -25.6358255 194.94200934 -28.03833008 194.70043945 C-41.25634148 193.36796054 -54.42983864 191.89206821 -67.57421875 189.953125 C-68.6563414 189.79364883 -69.73846405 189.63417267 -70.8533783 189.46986389 C-109.27787419 183.62467949 -153.5846591 170.55378786 -178 138 C-189.9343543 120.57532719 -193.60352741 99.8957296 -190.3125 79.125 C-184.84395849 54.95027513 -171.44783109 36.29603459 -150.73144531 23.00439453 C-130.84559457 10.74467102 -108.01794273 3.51939474 -85 0 C-84.06623535 -0.14808105 -83.1324707 -0.29616211 -82.17041016 -0.44873047 C-55.13964009 -4.58641137 -26.95336748 -4.78369069 0 0 Z " fill="#02D5D5" transform="translate(345,845)"/>
<path d="M0 0 C2.65504421 -0.00434738 5.30838568 -0.04070588 7.96313477 -0.07861328 C46.53248393 -0.33266061 79.82834409 16.50208627 107.62133789 42.37060547 C108.3496582 43.03318359 109.07797852 43.69576172 109.82836914 44.37841797 C135.32407076 68.54191176 151.88693767 104.89319819 152.93383789 139.96435547 C153.36184512 163.7845832 151.0202253 184.9647128 142.62133789 207.37060547 C142.33774414 208.19947266 142.05415039 209.02833984 141.76196289 209.88232422 C133.89510363 231.73883414 116.61353306 252.92571699 98.62133789 267.37060547 C97.6790332 268.13888672 96.73672852 268.90716797 95.76586914 269.69873047 C63.78091257 295.35244895 23.88668142 305.10032604 -16.65991211 300.90966797 C-44.47996239 297.29637743 -71.23199561 285.85258701 -92.37866211 267.37060547 C-93.3312793 266.53916016 -94.28389648 265.70771484 -95.26538086 264.85107422 C-105.53288941 255.73285194 -114.94266797 245.97421494 -122.37866211 234.37060547 C-123.03608398 233.35095703 -123.69350586 232.33130859 -124.37084961 231.28076172 C-137.48610603 210.46957181 -146.39314187 187.04094098 -146.61694336 162.20263672 C-146.62501511 161.32774094 -146.63308685 160.45284515 -146.6414032 159.55143738 C-146.65518391 157.69992005 -146.66593273 155.84837795 -146.67382812 153.99682617 C-146.68524121 152.14420876 -146.70551914 150.29162135 -146.73535156 148.43920898 C-147.01372782 131.09434672 -144.97176618 114.55031637 -138.75366211 98.24560547 C-138.41592773 97.34092529 -138.07819336 96.43624512 -137.73022461 95.50415039 C-131.24034516 78.7342196 -121.72615554 63.88657367 -109.52319336 50.70654297 C-107.61043903 48.62306922 -105.80685787 46.4857118 -104.00366211 44.30810547 C-99.66997159 39.34677701 -94.56283963 35.40350953 -89.37866211 31.37060547 C-87.98647461 30.25492188 -87.98647461 30.25492188 -86.56616211 29.11669922 C-72.30443668 17.97472623 -56.63189778 10.49166989 -39.37866211 5.18310547 C-38.57203125 4.93278564 -37.76540039 4.68246582 -36.93432617 4.42456055 C-24.63718539 0.77222574 -12.74877103 -0.00232493 0 0 Z " fill="#02D5D5" transform="translate(1233.378662109375,851.62939453125)"/>
<path d="M0 0 C4.28402158 3.97445358 7.22626963 9.11327873 10.2956543 14.03955078 C13.49119085 19.15639954 16.93706257 24.05412788 20.48828125 28.9296875 C21.04435059 29.69345703 21.60041992 30.45722656 22.17333984 31.24414062 C23.27677434 32.75753281 24.38092765 34.27040118 25.48583984 35.78271484 C27.77506724 38.92334913 30.04178073 42.07976513 32.30078125 45.2421875 C32.70635254 45.80969727 33.11192383 46.37720703 33.52978516 46.96191406 C36.17698918 50.67679867 38.77795595 54.42134709 41.36328125 58.1796875 C49.4430608 69.88537519 57.77928589 81.399151 66.50390625 92.6328125 C69.49769326 96.4928463 72.4319385 100.39713065 75.36328125 104.3046875 C75.85513916 104.95904785 76.34699707 105.6134082 76.85375977 106.28759766 C79.98013206 110.45999382 83.03439293 114.67707445 86.05078125 118.9296875 C87.91994442 117.06052433 87.17965487 114.38396654 87.18972778 111.89730835 C87.18770355 111.04947784 87.18567932 110.20164734 87.18359375 109.328125 C87.18455048 108.45829987 87.1855072 107.58847473 87.18649292 106.69229126 C87.1871752 104.84450204 87.18531763 102.99671044 87.18115234 101.14892578 C87.17584323 98.33750915 87.18107561 95.52625512 87.1875 92.71484375 C87.18683847 90.91927048 87.18555576 89.12369732 87.18359375 87.328125 C87.1866301 86.07459732 87.1866301 86.07459732 87.18972778 84.79574585 C87.17105122 80.07308124 86.77935437 75.60690926 86.05078125 70.9296875 C85.85939572 68.56046085 85.69369814 66.18904995 85.55078125 63.81640625 C85.51017578 63.16195023 85.46957031 62.5074942 85.42773438 61.83320618 C85.29942807 59.76135237 85.17476439 57.68930415 85.05078125 55.6171875 C84.44818703 45.11122704 84.44818703 45.11122704 83.5 34.6328125 C82.94633434 29.41758658 82.86701697 24.23339842 82.86328125 18.9921875 C82.85103516 18.06083984 82.83878906 17.12949219 82.82617188 16.16992188 C82.82423828 15.27724609 82.82230469 14.38457031 82.8203125 13.46484375 C82.81620361 12.6644165 82.81209473 11.86398926 82.80786133 11.03930664 C83.05078125 8.9296875 83.05078125 8.9296875 85.05078125 5.9296875 C86.94952488 5.5577507 86.94952488 5.5577507 89.30873108 5.56219482 C90.20193558 5.55662567 91.09514008 5.55105652 92.01541138 5.5453186 C93.48903641 5.55914078 93.48903641 5.55914078 94.99243164 5.57324219 C96.541278 5.57017563 96.541278 5.57017563 98.12141418 5.56704712 C101.54726655 5.56402978 104.97264205 5.58254384 108.3984375 5.6015625 C110.7697284 5.60461832 113.14102109 5.60649579 115.51231384 5.60723877 C120.48655036 5.61184771 125.46062552 5.62629725 130.43481445 5.6484375 C136.82664075 5.67673568 143.21833983 5.6876498 149.61022282 5.6921196 C154.50765773 5.69626665 159.40506664 5.70607788 164.30248833 5.71799469 C166.66012805 5.72371143 169.0177703 5.72846545 171.37541389 5.73226166 C174.66316295 5.73909933 177.95080894 5.7527194 181.23852539 5.76855469 C182.22296631 5.76967255 183.20740723 5.77079041 184.22167969 5.77194214 C185.11206436 5.77765228 186.00244904 5.78336243 186.91981506 5.78924561 C187.69797608 5.79222027 188.4761371 5.79519493 189.27787876 5.79825974 C191.05078125 5.9296875 191.05078125 5.9296875 192.05078125 6.9296875 C192.16481773 9.1396953 192.20560233 11.35349732 192.21875 13.56640625 C192.2249662 14.60620384 192.2249662 14.60620384 192.23130798 15.66700745 C192.24115602 17.98378556 192.24092667 20.30039121 192.23828125 22.6171875 C192.23834167 23.42176392 192.2384021 24.22634033 192.23846436 25.05529785 C192.22329284 39.39626429 191.6128611 53.6601832 190.78539658 67.97376919 C190.58695263 71.4175853 190.3924402 74.86161875 190.19859505 78.30569649 C190.10379442 79.98859748 190.00841171 81.67146583 189.91229057 83.35429192 C188.31425651 111.52077216 187.86332873 139.65152144 187.77734375 167.85546875 C187.77159027 169.58635085 187.76580843 171.31723286 187.75999832 173.04811478 C187.70762616 189.1195284 187.67711018 205.19095513 187.66992188 221.26245117 C187.66617861 229.29551698 187.64826593 237.32842577 187.61482751 245.36142415 C187.59470162 250.39687813 187.59219103 255.43192543 187.60310769 260.46740305 C187.60570494 263.56617682 187.59177106 266.66470881 187.57302666 269.7634201 C187.56769091 271.1989803 187.56922505 272.63458458 187.57806206 274.07012749 C187.58912721 276.02393207 187.5734539 277.9778342 187.55630493 279.93159485 C187.5552154 281.02425817 187.55412586 282.11692148 187.55300331 283.24269581 C187.05078125 285.9296875 187.05078125 285.9296875 185.15437889 287.78229046 C182.74219115 289.09800646 181.29922155 289.29115354 178.56640625 289.2578125 C177.71304687 289.25265625 176.8596875 289.2475 175.98046875 289.2421875 C174.65402344 289.21125 174.65402344 289.21125 173.30078125 289.1796875 C172.43195313 289.17453125 171.563125 289.169375 170.66796875 289.1640625 C166.15491876 289.10985169 161.83028752 288.77368474 157.35595703 288.15234375 C151.88200396 287.62361623 146.35704267 287.78779228 140.86328125 287.8046875 C139.62513672 287.80082031 138.38699219 287.79695313 137.11132812 287.79296875 C129.04246461 287.80142225 121.08612735 288.22192826 113.05078125 288.9296875 C98.57784375 290.16082051 98.57784375 290.16082051 93.61328125 287.7421875 C91.36623469 285.64494404 89.7812915 283.47660782 88.05078125 280.9296875 C87.13678488 279.66473294 86.21986828 278.40188565 85.30078125 277.140625 C83.20838838 274.23856854 81.1549171 271.31325624 79.125 268.3671875 C76.33219772 264.31766798 73.4670881 260.3284647 70.55078125 256.3671875 C70.10516846 255.76148926 69.65955566 255.15579102 69.20043945 254.53173828 C64.31403478 247.90839342 59.36940517 241.32858089 54.42041016 234.75195312 C52.47932807 232.16937974 50.54717777 229.58014409 48.61328125 226.9921875 C40.58366463 216.30049978 32.51369813 205.6466413 24.11328125 195.2421875 C23.59411133 194.59540039 23.07494141 193.94861328 22.54003906 193.28222656 C19.25667484 189.24620448 15.912023 185.42574922 12.05078125 181.9296875 C11.06078125 181.9296875 10.07078125 181.9296875 9.05078125 181.9296875 C8.93826873 195.90201155 9.03260654 209.8408188 9.55078125 223.8046875 C9.99663545 236.58985795 10.21941424 249.37242527 10.28295898 262.16534424 C10.29480488 264.21042528 10.31186325 266.25548302 10.33422852 268.30047607 C10.36401694 271.17312367 10.37412632 274.04518458 10.37890625 276.91796875 C10.39121277 277.78522079 10.40351929 278.65247284 10.41619873 279.54600525 C10.39410995 285.50400313 10.39410995 285.50400313 8.65914917 287.65513611 C6.52439648 289.34682119 5.24639065 289.28948256 2.54296875 289.2578125 C1.64707031 289.25330078 0.75117187 289.24878906 -0.171875 289.24414062 C-1.12964844 289.22287109 -2.08742188 289.20160156 -3.07421875 289.1796875 C-4.06035156 289.16873047 -5.04648438 289.15777344 -6.0625 289.14648438 C-12.73755634 289.04717888 -19.38665216 288.73240697 -26.04663086 288.29052734 C-36.1961651 287.62478568 -46.24091213 287.92275291 -56.38671875 288.4296875 C-64.46902894 288.82108609 -72.54506296 289.09278351 -80.63671875 289.1796875 C-81.622771 289.20095703 -82.60882324 289.22222656 -83.62475586 289.24414062 C-84.5400708 289.24865234 -85.45538574 289.25316406 -86.3984375 289.2578125 C-87.20627686 289.2671582 -88.01411621 289.27650391 -88.84643555 289.28613281 C-90.94921875 288.9296875 -90.94921875 288.9296875 -92.71313477 287.73608398 C-94.39293735 285.28124312 -94.30668078 283.66453533 -94.27734375 280.69921875 C-94.27299316 279.60746338 -94.26864258 278.51570801 -94.26416016 277.39086914 C-94.24272949 276.1868042 -94.22129883 274.98273926 -94.19921875 273.7421875 C-94.18681152 272.46915771 -94.1744043 271.19612793 -94.16162109 269.88452148 C-94.12337058 266.32714295 -94.06156499 262.77053053 -93.99279785 259.21362305 C-93.94854574 256.89441569 -93.9089526 254.57516329 -93.87011719 252.25585938 C-93.58814163 235.91775944 -93.16217455 219.60236693 -92.16235352 203.29125977 C-89.54005756 160.43305601 -91.02383222 117.61774972 -92.8815918 74.76220703 C-93.54432325 59.3579531 -94.14319295 43.94601773 -94.32344055 28.52753067 C-94.34461402 26.9805639 -94.3741638 25.43368672 -94.41252136 23.88705063 C-94.46278792 21.76156368 -94.48096031 19.63821384 -94.49023438 17.51220703 C-94.50687134 16.30903839 -94.5235083 15.10586975 -94.54064941 13.86624146 C-93.94921875 10.9296875 -93.94921875 10.9296875 -91.63008118 9.04905701 C-88.19778862 7.61593475 -85.30170696 7.42817482 -81.5859375 7.26953125 C-80.87629349 7.23412735 -80.16664948 7.19872345 -79.4355011 7.1622467 C-77.16962436 7.05099362 -74.90350298 6.95789757 -72.63671875 6.8671875 C-57.66976332 6.21630774 -43.0138741 5.00814633 -28.32421875 1.8671875 C-26.66553704 1.52130736 -25.00668687 1.17623395 -23.34765625 0.83203125 C-22.58622314 0.67395996 -21.82479004 0.51588867 -21.0402832 0.35302734 C-5.1980793 -2.85425597 -5.1980793 -2.85425597 0 0 Z " fill="#02D5D5" transform="translate(1515.94921875,855.0703125)"/>
<path d="M0 0 C0.77472656 0.00451172 1.54945313 0.00902344 2.34765625 0.01367188 C4.23180524 0.02530242 6.11591365 0.04323094 8 0.0625 C8 4.3525 8 8.6425 8 13.0625 C7.05640625 13.29324219 6.1128125 13.52398438 5.140625 13.76171875 C-12.57747913 18.21154509 -29.61709086 24.34315358 -39.6015625 40.68359375 C-52.38693855 65.24497405 -42.65574707 96.80434667 -37.08496094 122.23095703 C-31.0323053 150.09269767 -30.50089801 176.21599413 -45.9140625 201.16015625 C-64.92811874 228.09042315 -89.72730059 241.25794749 -121 249.0625 C-120.14470703 249.37888428 -119.28941406 249.69526855 -118.40820312 250.02124023 C-79.57198498 264.47502659 -79.57198498 264.47502659 -65 277.0625 C-63.88238281 277.98289062 -63.88238281 277.98289062 -62.7421875 278.921875 C-47.84444376 291.54708156 -36.3318193 310.62810788 -33 330.0625 C-31.84982556 345.79847276 -33.59006916 360.73672528 -37 376.0625 C-37.20850586 377.00480469 -37.41701172 377.94710938 -37.63183594 378.91796875 C-38.06032863 380.85107733 -38.48920369 382.7841012 -38.91845703 384.71704102 C-47.73267382 422.33041047 -47.73267382 422.33041047 -39.421875 458.95703125 C-37.74523151 461.4757727 -35.96557779 463.76441547 -34 466.0625 C-33.51144531 466.68382812 -33.02289062 467.30515625 -32.51953125 467.9453125 C-23.48360381 478.30527044 -9.59325917 482.15829063 3.2734375 485.15234375 C7 486.0625 7 486.0625 8 487.0625 C8.07258946 489.24889453 8.08373783 491.43750389 8.0625 493.625 C8.05347656 494.82253906 8.04445313 496.02007813 8.03515625 497.25390625 C8.01775391 498.64416016 8.01775391 498.64416016 8 500.0625 C-25.32077591 501.07683108 -53.48685127 494.41321488 -79 472.0625 C-79.825 471.43601562 -80.65 470.80953125 -81.5 470.1640625 C-95.87217651 458.08245162 -105.92436701 436.45260829 -108 418.0625 C-109.56044003 397.8535226 -104.03776549 377.49868292 -99.390625 358.00390625 C-94.20983518 336.17305801 -88.34901385 308.76100116 -99.7890625 287.98828125 C-109.27626845 272.9005634 -122.69463442 264.85627168 -139.8125 260.6875 C-142.184375 260.15125 -144.55625 259.615 -147 259.0625 C-147 253.1225 -147 247.1825 -147 241.0625 C-144.48375 240.381875 -141.9675 239.70125 -139.375 239 C-122.8063248 234.24895917 -109.68981142 226.77690411 -100.625 211.7890625 C-86.19517763 185.24849636 -96.09380522 152.46108928 -102.53735352 124.97070312 C-106.98940379 105.85825336 -111.43207843 83.67939226 -103 65.0625 C-102.72091797 64.4344043 -102.44183594 63.80630859 -102.15429688 63.15917969 C-98.06113696 54.07340752 -93.31810589 45.81270989 -87 38.0625 C-86.31292969 37.21171875 -85.62585938 36.3609375 -84.91796875 35.484375 C-64.46627823 11.45824487 -30.99827353 -0.34920066 0 0 Z " fill="#D4D4D4" transform="translate(1084,739.9375)"/>
<path d="M0 0 C30.10966357 -0.79760698 30.10966357 -0.79760698 44 4 C44.79986328 4.27376465 45.59972656 4.5475293 46.42382812 4.82958984 C62.15904289 10.3657209 75.38880888 18.02605124 88 29 C88.67289063 29.5775 89.34578125 30.155 90.0390625 30.75 C100.3120793 40.24537807 107.31886052 52.96078639 112 66 C112.33902344 66.90234375 112.67804688 67.8046875 113.02734375 68.734375 C120.66450733 93.08883213 112.0705524 122.41401429 105.92553711 146.35668945 C103.42185848 156.21224107 101.428485 165.82654176 101 176 C100.92394531 177.30839844 100.84789062 178.61679687 100.76953125 179.96484375 C100.128989 195.27080372 103.95285768 209.51365722 114.03125 221.39453125 C125.10279992 233.14830695 138.56309863 237.7155529 154 241 C154 246.94 154 252.88 154 259 C151.81375 259.515625 149.6275 260.03125 147.375 260.5625 C131.53375528 264.63725595 117.78368186 272.46290723 108.98901367 286.50073242 C104.26486485 294.54884514 101.41002804 303.65136067 101 313 C100.93683594 313.98226563 100.87367187 314.96453125 100.80859375 315.9765625 C100.2398235 332.52594217 104.11627597 348.84132251 108.0625 364.8125 C115.10359005 393.48670193 119.24922099 422.18454957 103.9375 448.9140625 C88.66109541 473.24543271 66.08516127 489.36263843 38.30908203 496.47998047 C25.68743548 499.32245321 12.90983978 500.43032799 0 500 C0 495.71 0 491.42 0 487 C1.99160156 486.43732422 1.99160156 486.43732422 4.0234375 485.86328125 C20.38533608 481.15948693 35.89698593 475.68433309 46 461 C59.30351266 436.22483535 51.45916635 408.59673055 45.51342773 382.64331055 C38.42322809 351.48938848 38.43629277 325.23634765 54.53515625 297.33984375 C71.57235658 270.43150786 99.34641861 260.02791615 128 250 C126.39898438 249.50693359 126.39898438 249.50693359 124.765625 249.00390625 C92.71213802 238.87504804 64.49644637 223.21715877 48.24609375 192.70703125 C46.69303193 189.51138274 45.30778337 186.30324614 44 183 C43.58621094 181.95972656 43.17242188 180.91945313 42.74609375 179.84765625 C34.70345096 156.2801908 42.47129164 129.87884555 47.89306641 106.57348633 C53.35824748 82.88562392 57.07571596 58.64613573 44 37 C34.13836598 22.66351699 16.27291079 16.85125555 0 13 C0 8.71 0 4.42 0 0 Z " fill="#D4D4D4" transform="translate(1709,740)"/>
<path d="M0 0 C18.12472529 -0.08021762 18.12472529 -0.08021762 25.99023438 -0.09765625 C31.30855415 -0.1095044 36.62680359 -0.12335076 41.94506836 -0.15087891 C95.63217261 -0.42115773 95.63217261 -0.42115773 107 6 C108.093125 6.5775 109.18625 7.155 110.3125 7.75 C116.13507791 12.62471639 119.55353863 19.48320249 120.30078125 27.04296875 C120.33641172 36.60381056 119.82856846 46.33186165 112.8671875 53.5703125 C109.2974666 56.30361344 105.25805572 57.68069052 101 59 C99.53203979 59.48593628 99.53203979 59.48593628 98.03442383 59.98168945 C93.03243271 61.39312493 87.95513435 61.73138757 82.7890625 62.1171875 C81.66778961 62.20169159 80.54651672 62.28619568 79.39126587 62.3732605 C64.50544956 63.37533205 49.60326021 63.22542693 34.69250488 63.1373291 C30.06472714 63.11270937 25.436892 63.10399331 20.80906677 63.09242249 C13.87259747 63.07339329 6.93648897 63.03493475 0 63 C0 42.21 0 21.42 0 0 Z " fill="#292E52" transform="translate(682,909)"/>
<path d="M0 0 C9.30853318 8.303459 16.52828445 17.89909369 17.79638672 30.66748047 C18.63237254 45.80745147 16.49567145 58.7265625 6.3125 70.5625 C-1.92832494 79.29695173 -11.49595323 85.08713972 -23.64453125 85.515625 C-39.69493938 85.78913282 -39.69493938 85.78913282 -46.4375 82.3125 C-47.241875 81.9103125 -48.04625 81.508125 -48.875 81.09375 C-58.567222 75.77484769 -65.89714071 68.41146091 -70.4375 58.3125 C-70.829375 57.48105469 -71.22125 56.64960937 -71.625 55.79296875 C-76.96996843 43.11722766 -74.7853049 29.9347211 -70.4375 17.3125 C-65.82219894 7.49056243 -56.82989327 -1.43897935 -46.921875 -5.79296875 C-31.33396476 -11.40559681 -13.43018611 -10.13948201 0 0 Z " fill="#292D51" transform="translate(1264.4375,963.6875)"/>
</svg>
